<svg width="256" height="256" viewBox="0 0 256 256" fill="none" xmlns="http://www.w3.org/2000/svg">
<path d="M73.4922 104.367H22.1812V211.31H233.819V104.367H182.508" stroke="black" stroke-width="12" stroke-miterlimit="10" stroke-linecap="round" stroke-linejoin="round"/>
<path d="M22.1812 104.367H233.819V58.9807C233.819 54.3479 230.137 50.6657 225.504 50.6657H30.496C25.8632 50.6657 22.1812 54.3479 22.1812 58.9807V104.367Z" stroke="black" stroke-width="12" stroke-miterlimit="10" stroke-linecap="round" stroke-linejoin="round"/>
<path d="M49.6279 77.5166H50.9033" stroke="black" stroke-width="12" stroke-miterlimit="10" stroke-linecap="round" stroke-linejoin="round"/>
<path d="M77.5166 77.5166H78.7919" stroke="black" stroke-width="12" stroke-miterlimit="10" stroke-linecap="round" stroke-linejoin="round"/>
<path d="M105.405 77.5166H106.681" stroke="black" stroke-width="12" stroke-miterlimit="10" stroke-linecap="round" stroke-linejoin="round"/>
<path d="M168.047 141.405L198.88 110.572" stroke="black" stroke-width="12" stroke-miterlimit="10" stroke-linecap="round" stroke-linejoin="round"/>
<path d="M198.88 136.026V110.571L173.425 110.571" stroke="black" stroke-width="12" stroke-miterlimit="10" stroke-linecap="round" stroke-linejoin="round"/>
<path d="M141.155 168.297L168.047 141.405L127.708 141.405L97.9404 171.172L57.5234 171.172" stroke="black" stroke-width="12" stroke-miterlimit="10" stroke-linecap="round" stroke-linejoin="round"/>
<path d="M128 44.5127C128 44.5127 150.771 58.071 150.771 85.3402V104.367H105.229V85.3402C105.229 58.071 128 44.5127 128 44.5127Z" stroke="black" stroke-width="12" stroke-miterlimit="10" stroke-linecap="round" stroke-linejoin="round"/>
<path d="M105.229 104.367C105.229 119.784 98.4484 132.513 88.0315 132.513" stroke="black" stroke-width="12" stroke-miterlimit="10" stroke-linecap="round" stroke-linejoin="round"/>
<path d="M150.771 104.367C150.771 119.784 157.552 132.513 167.969 132.513" stroke="black" stroke-width="12" stroke-miterlimit="10" stroke-linecap="round" stroke-linejoin="round"/>
<path d="M128 104.367V30.2941C128 22.8464 122.046 16.8921 114.598 16.8921C110.681 16.8921 107.199 18.7332 105.229 21.7596" stroke="black" stroke-width="12" stroke-miterlimit="10" stroke-linecap="round" stroke-linejoin="round"/>
<path d="M150.771 21.7596C148.801 18.7332 145.319 16.8921 141.402 16.8921C133.954 16.8921 128 22.8464 128 30.2941" stroke="black" stroke-width="12" stroke-miterlimit="10" stroke-linecap="round" stroke-linejoin="round"/>
<path d="M128 77.5166C132.708 77.5166 136.558 73.666 136.558 68.9578C136.558 64.2496 132.708 60.4004 128 60.4004C123.292 60.4004 119.441 64.2496 119.441 68.9578C119.441 73.666 123.292 77.5166 128 77.5166Z" stroke="black" stroke-width="12" stroke-miterlimit="10" stroke-linecap="round" stroke-linejoin="round"/>
<path d="M114.598 126.969C114.598 132.553 118.498 137.218 123.167 138.409V157.069C123.167 157.069 119.281 162.614 110.572 162.614C100.229 162.614 96.5522 153.275 96.5522 153.275" stroke="black" stroke-width="12" stroke-miterlimit="10" stroke-linecap="round" stroke-linejoin="round"/>
<path d="M141.402 126.969C141.402 132.553 137.502 137.218 132.833 138.409V157.069C132.833 157.069 136.719 162.614 145.428 162.614C155.771 162.614 159.448 153.275 159.448 153.275" stroke="black" stroke-width="12" stroke-miterlimit="10" stroke-linecap="round" stroke-linejoin="round"/>
</svg>
